<svg width="29" height="28" viewBox="0 0 29 28" fill="none" xmlns="http://www.w3.org/2000/svg">
<g id="heroicons-solid:document-report">
<path id="Vector" fill-rule="evenodd" clip-rule="evenodd" d="M9.04628 2.79999C8.30367 2.79999 7.59148 3.09499 7.06638 3.62009C6.54128 4.14519 6.24628 4.85738 6.24628 5.59999V22.4C6.24628 23.1426 6.54128 23.8548 7.06638 24.3799C7.59148 24.905 8.30367 25.2 9.04628 25.2H20.2463C20.9889 25.2 21.7011 24.905 22.2262 24.3799C22.7513 23.8548 23.0463 23.1426 23.0463 22.4V10.3796C23.0461 9.63704 22.751 8.92497 22.2259 8.39999L17.4463 3.62039C16.9213 3.09525 16.2092 2.80015 15.4667 2.79999H9.04628ZM11.8463 16.8C11.8463 16.4287 11.6988 16.0726 11.4362 15.81C11.1737 15.5475 10.8176 15.4 10.4463 15.4C10.075 15.4 9.71888 15.5475 9.45633 15.81C9.19378 16.0726 9.04628 16.4287 9.04628 16.8V21C9.04628 21.3713 9.19378 21.7274 9.45633 21.9899C9.71888 22.2525 10.075 22.4 10.4463 22.4C10.8176 22.4 11.1737 22.2525 11.4362 21.9899C11.6988 21.7274 11.8463 21.3713 11.8463 21V16.8ZM14.6463 12.6C15.0176 12.6 15.3737 12.7475 15.6362 13.01C15.8988 13.2726 16.0463 13.6287 16.0463 14V21C16.0463 21.3713 15.8988 21.7274 15.6362 21.9899C15.3737 22.2525 15.0176 22.4 14.6463 22.4C14.275 22.4 13.9189 22.2525 13.6563 21.9899C13.3938 21.7274 13.2463 21.3713 13.2463 21V14C13.2463 13.6287 13.3938 13.2726 13.6563 13.01C13.9189 12.7475 14.275 12.6 14.6463 12.6ZM20.2463 11.2C20.2463 10.8287 20.0988 10.4726 19.8362 10.21C19.5737 9.94749 19.2176 9.79999 18.8463 9.79999C18.475 9.79999 18.1189 9.94749 17.8563 10.21C17.5938 10.4726 17.4463 10.8287 17.4463 11.2V21C17.4463 21.3713 17.5938 21.7274 17.8563 21.9899C18.1189 22.2525 18.475 22.4 18.8463 22.4C19.2176 22.4 19.5737 22.2525 19.8362 21.9899C20.0988 21.7274 20.2463 21.3713 20.2463 21V11.2Z" fill="white"/>
</g>
</svg>
